<svg xmlns="http://www.w3.org/2000/svg" width="109" height="111.584" viewBox="0 0 109 111.584">
  <g id="Group_2320" data-name="Group 2320" transform="translate(-0.02)">
    <path id="Path_11386" data-name="Path 11386" d="M3.963,0,49.532,18.822s3.963,1.774,3.963,3.963V106a3.963,3.963,0,0,1-3.963,3.963H3.963A3.963,3.963,0,0,1,0,106V3.963A3.963,3.963,0,0,1,3.963,0Z" transform="translate(26.747)" fill="#7279cb"/>
    <g id="Group_2320-2" data-name="Group 2320" transform="translate(34.672 26.747)" opacity="0.298">
      <path id="Path_11396" data-name="Path 11396" d="M.991,0H37.644a.991.991,0,0,1,.991.991V3.963a.991.991,0,0,1-.991.991H.991A.991.991,0,0,1,0,3.963V.991A.991.991,0,0,1,.991,0Z" fill="#3f4595" opacity="0.711"/>
      <path id="Path_11395" data-name="Path 11395" d="M.991,0H37.644a.991.991,0,0,1,.991.991V3.963a.991.991,0,0,1-.991.991H.991A.991.991,0,0,1,0,3.963V.991A.991.991,0,0,1,.991,0Z" transform="translate(0 5.944)" fill="#3f4595" opacity="0.711"/>
      <path id="Path_11394" data-name="Path 11394" d="M.991,0H37.644a.991.991,0,0,1,.991.991V3.963a.991.991,0,0,1-.991.991H.991A.991.991,0,0,1,0,3.963V.991A.991.991,0,0,1,.991,0Z" transform="translate(0 11.888)" fill="#3f4595" opacity="0.711"/>
      <path id="Path_11393" data-name="Path 11393" d="M.991,0H37.644a.991.991,0,0,1,.991.991V3.963a.991.991,0,0,1-.991.991H.991A.991.991,0,0,1,0,3.963V.991A.991.991,0,0,1,.991,0Z" transform="translate(0 17.831)" fill="#3f4595" opacity="0.711"/>
      <path id="Path_11392" data-name="Path 11392" d="M.991,0H37.644a.991.991,0,0,1,.991.991V3.963a.991.991,0,0,1-.991.991H.991A.991.991,0,0,1,0,3.963V.991A.991.991,0,0,1,.991,0Z" transform="translate(0 23.775)" fill="#3f4595" opacity="0.711"/>
      <path id="Path_11391" data-name="Path 11391" d="M.991,0H37.644a.991.991,0,0,1,.991.991V3.963a.991.991,0,0,1-.991.991H.991A.991.991,0,0,1,0,3.963V.991A.991.991,0,0,1,.991,0Z" transform="translate(0 29.719)" fill="#3f4595" opacity="0.711"/>
      <path id="Path_11390" data-name="Path 11390" d="M.991,0H37.644a.991.991,0,0,1,.991.991V3.963a.991.991,0,0,1-.991.991H.991A.991.991,0,0,1,0,3.963V.991A.991.991,0,0,1,.991,0Z" transform="translate(0 35.663)" fill="#3f4595" opacity="0.711"/>
      <path id="Path_11389" data-name="Path 11389" d="M.991,0H37.644a.991.991,0,0,1,.991.991V3.963a.991.991,0,0,1-.991.991H.991A.991.991,0,0,1,0,3.963V.991A.991.991,0,0,1,.991,0Z" transform="translate(0 41.607)" fill="#3f4595" opacity="0.711"/>
      <path id="Path_11388" data-name="Path 11388" d="M.991,0H37.644a.991.991,0,0,1,.991.991V3.963a.991.991,0,0,1-.991.991H.991A.991.991,0,0,1,0,3.963V.991A.991.991,0,0,1,.991,0Z" transform="translate(0 47.55)" fill="#3f4595" opacity="0.711"/>
      <path id="Path_11387" data-name="Path 11387" d="M.991,0H37.644a.991.991,0,0,1,.991.991V3.963a.991.991,0,0,1-.991.991H.991A.991.991,0,0,1,0,3.963V.991A.991.991,0,0,1,.991,0Z" transform="translate(0 53.494)" fill="#3f4595" opacity="0.711"/>
    </g>
    <rect id="Rectangle_3739" data-name="Rectangle 3739" width="40" height="73" rx="4" transform="translate(9.02 36.584)" fill="#3f4595"/>
    <rect id="Rectangle_3740" data-name="Rectangle 3740" width="38" height="55" rx="4" transform="translate(61.02 54.584)" fill="#3f4595"/>
    <rect id="Rectangle_3743" data-name="Rectangle 3743" width="13" height="3" rx="1" transform="translate(67.02 65.584)" fill="#7279cb"/>
    <rect id="Rectangle_3770" data-name="Rectangle 3770" width="9" height="4" rx="1" transform="translate(15.02 47.584)" fill="#7279cb"/>
    <rect id="Rectangle_3748" data-name="Rectangle 3748" width="13" height="4" rx="1" transform="translate(67.02 71.584)" fill="#7279cb"/>
    <rect id="Rectangle_3769" data-name="Rectangle 3769" width="9" height="4" rx="1" transform="translate(15.02 53.584)" fill="#7279cb"/>
    <rect id="Rectangle_3751" data-name="Rectangle 3751" width="13" height="4" rx="1" transform="translate(67.02 77.584)" fill="#7279cb"/>
    <rect id="Rectangle_3764" data-name="Rectangle 3764" width="9" height="5" rx="1" transform="translate(15.02 58.584)" fill="#7279cb"/>
    <rect id="Rectangle_3754" data-name="Rectangle 3754" width="13" height="4" rx="1" transform="translate(67.02 82.584)" fill="#7279cb"/>
    <rect id="Rectangle_3763" data-name="Rectangle 3763" width="9" height="3" rx="1" transform="translate(15.02 65.584)" fill="#7279cb"/>
    <rect id="Rectangle_3757" data-name="Rectangle 3757" width="13" height="3" rx="1" transform="translate(67.02 89.584)" fill="#7279cb"/>
    <rect id="Rectangle_3760" data-name="Rectangle 3760" width="9" height="4" rx="1" transform="translate(15.02 71.584)" fill="#7279cb"/>
    <rect id="Rectangle_3773" data-name="Rectangle 3773" width="9" height="4" rx="1" transform="translate(15.02 77.584)" fill="#7279cb"/>
    <rect id="Rectangle_3776" data-name="Rectangle 3776" width="9" height="4" rx="1" transform="translate(15.02 82.584)" fill="#7279cb"/>
    <rect id="Rectangle_3779" data-name="Rectangle 3779" width="9" height="3" rx="1" transform="translate(15.02 89.584)" fill="#7279cb"/>
    <rect id="Rectangle_3744" data-name="Rectangle 3744" width="12" height="3" rx="1" transform="translate(81.02 65.584)" fill="#7279cb"/>
    <rect id="Rectangle_3771" data-name="Rectangle 3771" width="9" height="4" rx="1" transform="translate(25.02 47.584)" fill="#7279cb"/>
    <rect id="Rectangle_3747" data-name="Rectangle 3747" width="12" height="4" rx="1" transform="translate(81.02 71.584)" fill="#7279cb"/>
    <rect id="Rectangle_3768" data-name="Rectangle 3768" width="9" height="4" rx="1" transform="translate(25.02 53.584)" fill="#7279cb"/>
    <rect id="Rectangle_3750" data-name="Rectangle 3750" width="12" height="4" rx="1" transform="translate(81.02 77.584)" fill="#7279cb"/>
    <rect id="Rectangle_3765" data-name="Rectangle 3765" width="9" height="5" rx="1" transform="translate(25.02 58.584)" fill="#7279cb"/>
    <rect id="Rectangle_3753" data-name="Rectangle 3753" width="12" height="4" rx="1" transform="translate(81.02 82.584)" fill="#7279cb"/>
    <rect id="Rectangle_3762" data-name="Rectangle 3762" width="9" height="3" rx="1" transform="translate(25.02 65.584)" fill="#7279cb"/>
    <rect id="Rectangle_3756" data-name="Rectangle 3756" width="12" height="3" rx="1" transform="translate(81.02 89.584)" fill="#7279cb"/>
    <rect id="Rectangle_3759" data-name="Rectangle 3759" width="9" height="4" rx="1" transform="translate(25.02 71.584)" fill="#7279cb"/>
    <rect id="Rectangle_3775" data-name="Rectangle 3775" width="9" height="4" rx="1" transform="translate(25.02 77.584)" fill="#7279cb"/>
    <rect id="Rectangle_3778" data-name="Rectangle 3778" width="9" height="4" rx="1" transform="translate(25.02 82.584)" fill="#7279cb"/>
    <rect id="Rectangle_3781" data-name="Rectangle 3781" width="9" height="3" rx="1" transform="translate(25.02 89.584)" fill="#7279cb"/>
    <rect id="Rectangle_3772" data-name="Rectangle 3772" width="9" height="4" rx="1" transform="translate(34.02 47.584)" fill="#7279cb"/>
    <rect id="Rectangle_3767" data-name="Rectangle 3767" width="9" height="4" rx="1" transform="translate(34.02 53.584)" fill="#7279cb"/>
    <rect id="Rectangle_3766" data-name="Rectangle 3766" width="9" height="5" rx="1" transform="translate(34.02 58.584)" fill="#7279cb"/>
    <rect id="Rectangle_3761" data-name="Rectangle 3761" width="9" height="3" rx="1" transform="translate(34.02 65.584)" fill="#7279cb"/>
    <rect id="Rectangle_3758" data-name="Rectangle 3758" width="9" height="4" rx="1" transform="translate(34.02 71.584)" fill="#7279cb"/>
    <rect id="Rectangle_3774" data-name="Rectangle 3774" width="9" height="4" rx="1" transform="translate(34.02 77.584)" fill="#7279cb"/>
    <rect id="Rectangle_3777" data-name="Rectangle 3777" width="9" height="4" rx="1" transform="translate(34.02 82.584)" fill="#7279cb"/>
    <rect id="Rectangle_3780" data-name="Rectangle 3780" width="9" height="3" rx="1" transform="translate(34.02 89.584)" fill="#7279cb"/>
    <rect id="Rectangle_3738" data-name="Rectangle 3738" width="109" height="6" rx="3" transform="translate(0.02 105.584)" fill="#23286e"/>
  </g>
</svg>
