<svg xmlns="http://www.w3.org/2000/svg" width="159.169" height="110.707" viewBox="0 0 159.169 110.707">
  <g id="Group_15" data-name="Group 15" transform="translate(-296.609 -211.158)">
    <g id="Group_12" data-name="Group 12" transform="translate(296.609 211.158)">
      <path id="Path_39" data-name="Path 39" d="M383.472,266.009a98.3,98.3,0,0,1-7.158-7.817,14.3,14.3,0,0,1-3.538-7.463l-5.1,21.345q8.5,7.13,13.246,10.544H299.311c-.917,0-1.817-.024-2.7-.065v13.833c.667.032,1.351.04,2.042.04h77.582q3.112-4.837,5.1-8.533a68.9,68.9,0,0,0,3.538-7.689,19.972,19.972,0,0,0,1.552-7.109A10.236,10.236,0,0,0,383.472,266.009Z" transform="translate(-296.609 -225.4)" fill="#3f4595"/>
      <path id="Path_40" data-name="Path 40" d="M365.519,251.66,353.8,259.509l-5.252-7.745-11.565,7.745-7.9-11.718,11.718-7.9,5.252,7.793,11.565-7.793Z" transform="translate(-308.299 -221.501)" fill="#5090c7"/>
      <path id="Path_41" data-name="Path 41" d="M462.5,268.144c-.354-5.96-1.094-21.031-2.211-31.527-.169-1.833-.289-3.329-.362-4.479l-12.072-6.828c1.97,13.52,3.434,31.124,4.383,39.142a103.217,103.217,0,0,1,.684,15.9q-.326,6.418-3.185,7.592,7.95-2.086,10.624-6.474T462.5,268.144Z" transform="translate(-351.048 -216.252)" fill="#3f4595"/>
      <path id="Path_42" data-name="Path 42" d="M519.4,259.053a29.731,29.731,0,0,0-6.675-7.109,62.1,62.1,0,0,0-9.659-5.75l-7.287,16,25.277,12.023a25.624,25.624,0,0,1-5.252,3.257,35.784,35.784,0,0,1-7.262,2.268,52.1,52.1,0,0,1-11.082,1,18.561,18.561,0,0,1-8.147-1.809,10.082,10.082,0,0,1-5.252-5.807q-1.472-4,.668-10.624a56.884,56.884,0,0,0-2.324,9.4,40.969,40.969,0,0,0-.378,11.083,17.583,17.583,0,0,0,3.668,9.449q3.112,3.9,9.78,4.561,2.352.048,4.584.048,8.867-.711,13.76-5.678a27.205,27.205,0,0,0,6.8-11.316,36.8,36.8,0,0,0,1.809-11.13A18.152,18.152,0,0,0,519.4,259.053Z" transform="translate(-363.27 -223.768)" fill="#3f4595"/>
      <rect id="Rectangle_5" data-name="Rectangle 5" width="14.131" height="14.131" transform="translate(128.382 7.898) rotate(-33.98)" fill="#5090c7"/>
    </g>
    <g id="Group_14" data-name="Group 14" transform="translate(296.609 297.386)">
      <path id="Path_43" data-name="Path 43" d="M304.054,366.921c-4.835-.054-5.275-2.307-5.275-4.972a4.916,4.916,0,0,1,2.2-4.038v-.083l-.99-.11c-2.39,0-3.379,1.868-3.379,4.451,0,4.038,1.95,6.977,7.28,6.977,10,0,.742-13.187,11.21-13.187v9.259h1.154a1.241,1.241,0,0,0,1.208-1.237V353.514H315.1C302.241,353.514,310.483,366.921,304.054,366.921Z" transform="translate(-296.609 -348.624)" fill="#3f4595"/>
      <path id="Path_44" data-name="Path 44" d="M333.357,357.078h-.742v6.977c0,3.6.467,5.386-2.638,5.386a5.461,5.461,0,0,1-.659-.055v.632c0,.8.769,1.263,1.9,1.263a3.649,3.649,0,0,0,3.764-3.489v-8.873C334.978,357.6,334.593,357.078,333.357,357.078Z" transform="translate(-308.382 -349.907)" fill="#3f4595"/>
      <path id="Path_45" data-name="Path 45" d="M372.723,345.918h-.741v12.17c-.083,1.484-.8,2.06-2.089,2.06h-3.27v-3.764c0-3.351-2.06-5.605-5.055-5.605-3.187,0-5.22,2.281-5.22,6.017a4.956,4.956,0,0,0,1.1,3.352H351.9c-.028-.054-.028-.082-.028-3.764,0-3.351-2.06-5.605-5.055-5.605-3.187,0-5.22,2.281-5.22,6.017,0,4.754,4.506,5.55,7.858,5.66-.357,1.7-2.8,2.555-5.165,2.555a7.5,7.5,0,0,1-1.374-.109V366c0,.961,1.016,1.264,2.28,1.264,3.517,0,6.072-2.17,6.567-4.808H370.5c3.022-.193,3.846-2.693,3.846-5.3v-9.4C374.345,346.44,373.96,345.918,372.723,345.918Zm-23,14.231c-3.351,0-5.933-.33-5.933-3.737,0-2.143,1.1-3.517,2.775-3.517C349.946,352.9,349.726,356.137,349.726,360.149Zm14.755,0c-3.352,0-5.935-.33-5.935-3.737,0-2.143,1.1-3.517,2.775-3.517C364.7,352.9,364.481,356.137,364.481,360.149Z" transform="translate(-312.8 -345.89)" fill="#3f4595"/>
      <path id="Path_46" data-name="Path 46" d="M398.154,345.874h-1.1v14.919c0,1.153.6,1.648,1.484,1.648h.824V347A1.2,1.2,0,0,0,398.154,345.874Z" transform="translate(-332.762 -345.874)" fill="#3f4595"/>
      <path id="Path_47" data-name="Path 47" d="M457.1,350.764c-2.8,0-4.89,2.446-5.934,4.973v-8.022c0-1.319-.385-1.841-1.621-1.841h-.742v14.259h-2.913a1.811,1.811,0,0,1-2.088-1.923v-3.3c0-1.318-.385-1.84-1.621-1.84h-.742v5c-.083,1.484-.8,2.06-2.089,2.06h-.5a3.106,3.106,0,0,1-1.429-.246v-3.517c0-3.351-2.061-5.605-5.055-5.605-3.188,0-5.22,2.281-5.22,6.017a4.962,4.962,0,0,0,1.1,3.352h-6.318c-2.473,0-3.1-2.747-3.1-4.23a4.9,4.9,0,0,1,1.951-4.04h-.935c-1.566,0-3.133,1.182-3.133,4.533,0,2.556,1.621,6.045,4.808,6.045h12.8c1.758,0,2.226-.769,2.226-.769a3.427,3.427,0,0,0,2.172.753v.016h1.237a3.977,3.977,0,0,0,2.665-1.045,3.922,3.922,0,0,0,2.665,1.045h18.188c.934,0,1.1-1.786,1.1-3.1C464.575,355.051,462.515,350.764,457.1,350.764Zm-21.816,9.369c-3.351,0-5.935-.33-5.935-3.737,0-2.143,1.1-3.517,2.775-3.517C435.506,352.88,435.285,356.122,435.285,360.133Zm16.047,0c.769-3.406,2.967-6.813,5.824-6.813,4.232,0,4.836,4.368,4.973,6.813Z" transform="translate(-339.837 -345.874)" fill="#3f4595"/>
      <g id="Group_13" data-name="Group 13" transform="translate(4.231 0.357)">
        <path id="Path_48" data-name="Path 48" d="M304.565,380a1.319,1.319,0,1,0,0,2.637,1.319,1.319,0,0,0,0-2.637Z" transform="translate(-303.219 -358.513)" fill="#5090c7"/>
        <path id="Path_49" data-name="Path 49" d="M309.486,380a1.319,1.319,0,1,0,1.318,1.319A1.332,1.332,0,0,0,309.486,380Z" transform="translate(-304.98 -358.513)" fill="#5090c7"/>
        <path id="Path_50" data-name="Path 50" d="M372.1,349.1a1.332,1.332,0,1,0-1.319-1.318A1.314,1.314,0,0,0,372.1,349.1Z" transform="translate(-327.537 -346.432)" fill="#5090c7"/>
        <path id="Path_51" data-name="Path 51" d="M441.825,347.755a1.333,1.333,0,1,1-1.347-1.319A1.315,1.315,0,0,1,441.825,347.755Z" transform="translate(-352.147 -346.433)" fill="#5090c7"/>
        <path id="Path_52" data-name="Path 52" d="M459.674,375.7a1.347,1.347,0,1,1-1.319-1.32A1.337,1.337,0,0,1,459.674,375.7Z" transform="translate(-358.562 -356.491)" fill="#5090c7"/>
        <path id="Path_53" data-name="Path 53" d="M454.751,375.7a1.3,1.3,0,0,1-1.319,1.319,1.32,1.32,0,1,1,0-2.639A1.3,1.3,0,0,1,454.751,375.7Z" transform="translate(-356.8 -356.491)" fill="#5090c7"/>
        <path id="Path_54" data-name="Path 54" d="M480.231,347.841a1.347,1.347,0,1,1-1.319-1.319A1.337,1.337,0,0,1,480.231,347.841Z" transform="translate(-365.961 -346.464)" fill="#5090c7"/>
        <path id="Path_55" data-name="Path 55" d="M523.025,351.964a1.342,1.342,0,1,1-1.31-1.32A1.322,1.322,0,0,1,523.025,351.964Z" transform="translate(-381.367 -347.948)" fill="#5090c7"/>
        <path id="Path_56" data-name="Path 56" d="M518.112,351.964a1.3,1.3,0,0,1-1.32,1.31,1.315,1.315,0,1,1,0-2.63A1.3,1.3,0,0,1,518.112,351.964Z" transform="translate(-379.604 -347.948)" fill="#5090c7"/>
      </g>
      <path id="Path_57" data-name="Path 57" d="M525.532,345.9h-.742v12.17c-.083,1.484-.8,2.06-2.089,2.06h-.99a1.811,1.811,0,0,1-2.088-1.923v-10.5c0-1.319-.385-1.841-1.621-1.841h-.742v12.2c-.083,1.484-.8,2.06-2.089,2.06h-.716a1.81,1.81,0,0,1-2.087-1.923v-3.3c0-1.318-.385-1.84-1.621-1.84h-.742v5c-.083,1.484-.8,2.06-2.089,2.06h-2.693c-.028-.054-.028-.082-.028-3.764,0-3.351-2.061-5.605-5.055-5.605-3.188,0-5.22,2.281-5.22,6.017,0,4.754,4.505,5.55,7.858,5.66-.357,1.7-2.8,2.555-5.165,2.555a7.5,7.5,0,0,1-1.373-.109v1.1c0,.961,1.016,1.264,2.28,1.264,3.517,0,6.072-2.17,6.566-4.808h3.435a3.978,3.978,0,0,0,2.665-1.045,3.922,3.922,0,0,0,2.665,1.045h1.925a3.981,3.981,0,0,0,2.665-1.045,3.922,3.922,0,0,0,2.665,1.045h2.2c3.022-.193,3.846-2.693,3.846-5.3v-9.4C527.152,346.424,526.768,345.9,525.532,345.9Zm-22.476,14.231c-3.352,0-5.935-.33-5.935-3.737,0-2.143,1.1-3.517,2.775-3.517C503.276,352.88,503.056,356.122,503.056,360.133Z" transform="translate(-367.988 -345.874)" fill="#3f4595"/>
    </g>
  </g>
</svg>
