<svg xmlns="http://www.w3.org/2000/svg" width="124.653" height="45.36" viewBox="0 0 124.653 45.36">
  <g id="Group_9129" data-name="Group 9129" transform="translate(0.5 0.5)" style="mix-blend-mode: luminosity;isolation: isolate">
    <g id="Group_9101" data-name="Group 9101" transform="translate(0 0)">
      <path id="Path_13684" data-name="Path 13684" d="M59.9,47.169H52.914V17.821h6.81v3.917a8.572,8.572,0,0,1,3.826-3.647A11.823,11.823,0,0,1,73.1,17.88a8.908,8.908,0,0,1,3.285,2.5,11.121,11.121,0,0,1,1.958,3.707,14.991,14.991,0,0,1,.663,4.519V47.169H72.018V29.814a7.726,7.726,0,0,0-1.355-4.61q-1.356-1.9-4.671-1.9a5.364,5.364,0,0,0-4.55,2.019A7.871,7.871,0,0,0,59.9,30.236Z" transform="translate(-11.881 -3.812)" fill="#0f7ea7" stroke="rgba(0,0,0,0)" stroke-width="1"/>
      <path id="Path_13685" data-name="Path 13685" d="M122.831,38.775a13.656,13.656,0,0,1-1.748,3.616,12.32,12.32,0,0,1-2.832,2.954,13.455,13.455,0,0,1-3.857,1.988,15.148,15.148,0,0,1-4.821.724A15.667,15.667,0,0,1,103.848,47a13.877,13.877,0,0,1-4.761-3.073A15.1,15.1,0,0,1,95.8,38.987a16.963,16.963,0,0,1-1.235-6.66A16.4,16.4,0,0,1,95.742,26a15.054,15.054,0,0,1,3.164-4.851,14.31,14.31,0,0,1,4.581-3.134A13.437,13.437,0,0,1,108.85,16.9a16.041,16.041,0,0,1,6.056,1.085,12.388,12.388,0,0,1,4.519,3.073,13.366,13.366,0,0,1,2.8,4.791,19.329,19.329,0,0,1,.964,6.3c0,.564-.022,1.055-.061,1.477a3.216,3.216,0,0,1-.121.752H101.558a7.645,7.645,0,0,0,.724,3.073,8.03,8.03,0,0,0,1.748,2.412,7.9,7.9,0,0,0,2.5,1.6,8.034,8.034,0,0,0,3.044.574,7.313,7.313,0,0,0,4.912-1.477,8.1,8.1,0,0,0,2.441-3.645Zm-6.689-9.521a7.753,7.753,0,0,0-.513-2.44,5.909,5.909,0,0,0-1.356-2.079,6.7,6.7,0,0,0-2.23-1.446,8.235,8.235,0,0,0-3.133-.543,7.178,7.178,0,0,0-2.923.572,6.933,6.933,0,0,0-2.2,1.507,7.609,7.609,0,0,0-1.446,2.109,6.324,6.324,0,0,0-.6,2.32Z" transform="translate(-21.234 -3.795)" fill="#0f7ea7" stroke="rgba(0,0,0,0)" stroke-width="1"/>
      <path id="Path_13686" data-name="Path 13686" d="M147.954,15.466h6.087v6.207h-6.087v13.62a3.753,3.753,0,0,0,.9,2.8,3.945,3.945,0,0,0,2.832.875,11.484,11.484,0,0,0,1.448-.092q.722-.09.963-.15v5.785c-.2.081-.643.21-1.325.392a12.253,12.253,0,0,1-2.953.271,8.84,8.84,0,0,1-6.448-2.291,8.581,8.581,0,0,1-2.351-6.448V21.673H135.6V15.466h1.507a4.183,4.183,0,0,0,3.435-1.326,4.971,4.971,0,0,0,1.085-3.254v-4.4h6.328Z" transform="translate(-30.447 -1.457)" fill="#0f7ea7" stroke="rgba(0,0,0,0)" stroke-width="1"/>
      <path id="Path_13689" data-name="Path 13689" d="M26.2,0V14.381a16.5,16.5,0,0,0-9.761-3.12A16.381,16.381,0,0,0,4.823,15.947,16.5,16.5,0,0,0,0,27.81a16.53,16.53,0,0,0,4.779,11.82,16.355,16.355,0,0,0,11.655,4.73A16.131,16.131,0,0,0,32.87,27.81V0Zm-.057,27.81c0,5.888-4.081,10.162-9.7,10.162s-9.7-4.274-9.7-10.162c0-5.793,4.171-10.162,9.7-10.162s9.7,4.368,9.7,10.162" fill="#08233c" stroke="rgba(0,0,0,0)" stroke-width="1"/>
      <rect id="Rectangle_3769" data-name="Rectangle 3769" width="15.728" height="6.184" transform="translate(41.033 0)" fill="#08233c" stroke="rgba(0,0,0,0)" stroke-width="1"/>
    </g>
  </g>
</svg>
