<svg xmlns="http://www.w3.org/2000/svg" width="120.336" height="83.698" viewBox="0 0 120.336 83.698">
  <g id="Group_2315" data-name="Group 2315" transform="translate(-296.609 -211.158)">
    <g id="Group_12" data-name="Group 12" transform="translate(296.609 211.158)">
      <path id="Path_39" data-name="Path 39" d="M362.28,262.281a74.312,74.312,0,0,1-5.412-5.91,10.809,10.809,0,0,1-2.675-5.642l-3.855,16.137q6.43,5.39,10.014,7.972h-61.7c-.693,0-1.374-.018-2.043-.049v10.458c.5.024,1.021.03,1.544.03h58.654q2.353-3.657,3.855-6.451a52.1,52.1,0,0,0,2.675-5.813,15.1,15.1,0,0,0,1.173-5.375A7.739,7.739,0,0,0,362.28,262.281Z" transform="translate(-296.609 -231.58)" fill="#fff"/>
      <path id="Path_40" data-name="Path 40" d="M356.631,248.789l-8.859,5.934-3.97-5.855-8.743,5.855-5.971-8.859,8.859-5.971,3.97,5.892,8.743-5.892Z" transform="translate(-313.37 -225.988)" fill="#5090c7"/>
      <path id="Path_41" data-name="Path 41" d="M458.931,257.694c-.268-4.506-.827-15.9-1.672-23.835-.128-1.386-.219-2.517-.273-3.386l-9.127-5.162c1.49,10.221,2.6,23.531,3.314,29.593a78.027,78.027,0,0,1,.517,12.021q-.247,4.852-2.408,5.74,6.01-1.577,8.032-4.894T458.931,257.694Z" transform="translate(-374.667 -218.462)" fill="#fff"/>
      <path id="Path_42" data-name="Path 42" d="M510.233,255.915a22.476,22.476,0,0,0-5.047-5.375,46.95,46.95,0,0,0-7.3-4.348l-5.509,12.094,19.11,9.09a19.369,19.369,0,0,1-3.971,2.463,27.055,27.055,0,0,1-5.491,1.715,39.391,39.391,0,0,1-8.379.754,14.032,14.032,0,0,1-6.159-1.368,7.622,7.622,0,0,1-3.971-4.39q-1.113-3.028.5-8.032a43,43,0,0,0-1.757,7.108,30.973,30.973,0,0,0-.286,8.379,13.293,13.293,0,0,0,2.773,7.144q2.353,2.946,7.394,3.448,1.778.036,3.466.036,6.7-.538,10.4-4.293a20.568,20.568,0,0,0,5.144-8.555,27.822,27.822,0,0,0,1.368-8.415A13.723,13.723,0,0,0,510.233,255.915Z" transform="translate(-392.192 -229.239)" fill="#fff"/>
      <rect id="Rectangle_5" data-name="Rectangle 5" width="10.683" height="10.683" transform="translate(97.061 5.971) rotate(-33.98)" fill="#5090c7"/>
    </g>
    <g id="Group_14" data-name="Group 14" transform="translate(296.609 276.349)">
      <path id="Path_43" data-name="Path 43" d="M302.238,363.65c-3.656-.041-3.988-1.745-3.988-3.759a3.717,3.717,0,0,1,1.662-3.053v-.062l-.748-.083c-1.807,0-2.555,1.413-2.555,3.365,0,3.053,1.474,5.275,5.5,5.275,7.561,0,.561-9.97,8.475-9.97v7h.873a.939.939,0,0,0,.914-.935v-7.914h-1.786C300.867,353.514,307.1,363.65,302.238,363.65Z" transform="translate(-296.609 -349.817)" fill="#fff"/>
      <path id="Path_44" data-name="Path 44" d="M332.371,357.078h-.561v5.275c0,2.721.353,4.072-1.994,4.072a4.135,4.135,0,0,1-.5-.042v.478c0,.6.582.955,1.433.955a2.759,2.759,0,0,0,2.845-2.638V358.47C333.6,357.472,333.306,357.078,332.371,357.078Z" transform="translate(-313.49 -351.656)" fill="#fff"/>
      <path id="Path_45" data-name="Path 45" d="M365.129,345.918h-.56v9.2c-.062,1.122-.6,1.558-1.579,1.558h-2.472v-2.845c0-2.534-1.558-4.238-3.822-4.238-2.409,0-3.946,1.725-3.946,4.549a3.747,3.747,0,0,0,.831,2.534h-4.2c-.021-.041-.021-.062-.021-2.845,0-2.534-1.558-4.238-3.822-4.238-2.409,0-3.947,1.725-3.947,4.549,0,3.594,3.407,4.2,5.941,4.279-.27,1.288-2.119,1.931-3.9,1.931a5.673,5.673,0,0,1-1.038-.083v.831c0,.727.768.955,1.724.955a4.8,4.8,0,0,0,4.964-3.635h14.167c2.285-.146,2.908-2.036,2.908-4.009v-7.1C366.354,346.312,366.064,345.918,365.129,345.918Zm-17.387,10.759c-2.534,0-4.486-.249-4.486-2.825,0-1.62.83-2.659,2.1-2.659C347.909,351.193,347.742,353.644,347.742,356.677Zm11.155,0c-2.534,0-4.487-.249-4.487-2.825,0-1.62.831-2.659,2.1-2.659C359.063,351.193,358.9,353.644,358.9,356.677Z" transform="translate(-319.825 -345.897)" fill="#fff"/>
      <path id="Path_46" data-name="Path 46" d="M397.885,345.874h-.831v11.279c0,.872.457,1.246,1.122,1.246h.623V346.726A.91.91,0,0,0,397.885,345.874Z" transform="translate(-348.447 -345.874)" fill="#fff"/>
      <path id="Path_47" data-name="Path 47" d="M447.248,349.571c-2.119,0-3.7,1.849-4.486,3.76v-6.065c0-1-.291-1.392-1.225-1.392h-.561v10.78h-2.2a1.369,1.369,0,0,1-1.579-1.454v-2.493c0-1-.291-1.391-1.225-1.391h-.561v3.78c-.062,1.122-.6,1.558-1.579,1.558h-.375a2.348,2.348,0,0,1-1.08-.186v-2.659c0-2.534-1.558-4.238-3.821-4.238-2.41,0-3.947,1.725-3.947,4.549a3.752,3.752,0,0,0,.83,2.534H420.66c-1.869,0-2.347-2.076-2.347-3.2a3.708,3.708,0,0,1,1.475-3.054h-.706c-1.184,0-2.368.894-2.368,3.427,0,1.932,1.226,4.57,3.635,4.57h9.679c1.329,0,1.683-.582,1.683-.582a2.591,2.591,0,0,0,1.642.57v.012h.935a3.007,3.007,0,0,0,2.015-.79,2.965,2.965,0,0,0,2.015.79h13.751c.706,0,.831-1.351.831-2.347C452.9,352.812,451.341,349.571,447.248,349.571Zm-16.494,7.083c-2.534,0-4.487-.249-4.487-2.825,0-1.62.831-2.659,2.1-2.659C430.921,351.17,430.754,353.621,430.754,356.654Zm12.132,0c.582-2.575,2.243-5.151,4.4-5.151,3.2,0,3.656,3.3,3.76,5.151Z" transform="translate(-358.593 -345.874)" fill="#fff"/>
      <g id="Group_13" data-name="Group 13" transform="translate(3.199 0.27)">
        <path id="Path_48" data-name="Path 48" d="M304.237,380a1,1,0,1,0,0,1.994,1,1,0,0,0,0-1.994Z" transform="translate(-303.219 -363.755)" fill="#5090c7"/>
        <path id="Path_49" data-name="Path 49" d="M309.151,380a1,1,0,1,0,1,1A1.007,1.007,0,0,0,309.151,380Z" transform="translate(-305.744 -363.755)" fill="#5090c7"/>
        <path id="Path_50" data-name="Path 50" d="M371.78,348.447a1.007,1.007,0,1,0-1-1A.993.993,0,0,0,371.78,348.447Z" transform="translate(-338.088 -346.432)" fill="#5090c7"/>
        <path id="Path_51" data-name="Path 51" d="M441.174,347.433a1.008,1.008,0,1,1-1.019-1A.994.994,0,0,1,441.174,347.433Z" transform="translate(-373.375 -346.434)" fill="#5090c7"/>
        <path id="Path_52" data-name="Path 52" d="M459.017,375.377a1.018,1.018,0,1,1-1-1A1.011,1.011,0,0,1,459.017,375.377Z" transform="translate(-382.573 -360.855)" fill="#5090c7"/>
        <path id="Path_53" data-name="Path 53" d="M454.1,375.377a.985.985,0,0,1-1,1,1,1,0,1,1,0-2A.985.985,0,0,1,454.1,375.377Z" transform="translate(-380.046 -360.855)" fill="#5090c7"/>
        <path id="Path_54" data-name="Path 54" d="M479.574,347.519a1.018,1.018,0,1,1-1-1A1.011,1.011,0,0,1,479.574,347.519Z" transform="translate(-393.182 -346.478)" fill="#5090c7"/>
        <path id="Path_55" data-name="Path 55" d="M522.371,351.642a1.015,1.015,0,1,1-.991-1A1,1,0,0,1,522.371,351.642Z" transform="translate(-415.272 -348.606)" fill="#5090c7"/>
        <path id="Path_56" data-name="Path 56" d="M517.461,351.642a.979.979,0,0,1-1,.991.994.994,0,1,1,0-1.988A.985.985,0,0,1,517.461,351.642Z" transform="translate(-412.746 -348.606)" fill="#5090c7"/>
      </g>
      <path id="Path_57" data-name="Path 57" d="M518.065,345.9H517.5v9.2c-.063,1.122-.6,1.558-1.579,1.558h-.748A1.369,1.369,0,0,1,513.6,355.2v-7.935c0-1-.291-1.392-1.225-1.392h-.561V355.1c-.063,1.122-.6,1.558-1.579,1.558h-.541a1.369,1.369,0,0,1-1.578-1.454v-2.493c0-1-.291-1.391-1.225-1.391h-.561v3.78c-.063,1.122-.6,1.558-1.579,1.558h-2.036c-.021-.041-.021-.062-.021-2.845,0-2.534-1.558-4.238-3.821-4.238-2.41,0-3.947,1.725-3.947,4.549,0,3.594,3.406,4.2,5.941,4.279-.27,1.288-2.119,1.931-3.905,1.931a5.67,5.67,0,0,1-1.038-.083v.831c0,.727.768.955,1.724.955a4.8,4.8,0,0,0,4.964-3.635h2.6a3.008,3.008,0,0,0,2.015-.79,2.965,2.965,0,0,0,2.015.79h1.455a3.01,3.01,0,0,0,2.015-.79,2.965,2.965,0,0,0,2.015.79h1.662c2.285-.146,2.907-2.036,2.907-4.009v-7.1C519.29,346.29,519,345.9,518.065,345.9Zm-16.993,10.759c-2.534,0-4.487-.249-4.487-2.825,0-1.62.831-2.659,2.1-2.659C501.239,351.17,501.072,353.621,501.072,356.654Z" transform="translate(-398.956 -345.874)" fill="#fff"/>
    </g>
  </g>
</svg>
