<svg id="logo_" data-name="logo " xmlns="http://www.w3.org/2000/svg" width="231.081" height="160.725" viewBox="0 0 231.081 160.725">
  <g id="Group_12" data-name="Group 12" transform="translate(0 0)">
    <path id="Path_39" data-name="Path 39" d="M422.716,272.913a142.731,142.731,0,0,1-10.392-11.349q-4.624-5.656-5.137-10.835l-7.4,30.988q12.347,10.351,19.23,15.308H300.531c-1.331,0-2.638-.035-3.922-.094v20.083c.968.046,1.961.058,2.965.058H412.208q4.518-7.022,7.4-12.388a100.046,100.046,0,0,0,5.137-11.162A29,29,0,0,0,427,283.2,14.86,14.86,0,0,0,422.716,272.913Z" transform="translate(-296.609 -213.957)" fill="#3f4595"/>
    <path id="Path_40" data-name="Path 40" d="M381.979,256.976l-17.012,11.4-7.624-11.244-16.79,11.244-11.466-17.012L346.1,239.894l7.624,11.314,16.79-11.314Z" transform="translate(-298.907 -213.191)" fill="#5090c7"/>
    <path id="Path_41" data-name="Path 41" d="M469.12,287.5c-.514-8.652-1.588-30.533-3.211-45.771-.245-2.661-.42-4.833-.525-6.5l-17.526-9.913c2.86,19.628,4.985,45.186,6.364,56.827a149.838,149.838,0,0,1,.992,23.084q-.474,9.318-4.624,11.022,11.541-3.029,15.424-9.4T469.12,287.5Z" transform="translate(-307.309 -212.159)" fill="#3f4595"/>
    <path id="Path_42" data-name="Path 42" d="M536.383,264.863a43.16,43.16,0,0,0-9.691-10.321,90.154,90.154,0,0,0-14.022-8.348l-10.579,23.224,36.7,17.455a37.2,37.2,0,0,1-7.625,4.729,51.954,51.954,0,0,1-10.543,3.292,75.644,75.644,0,0,1-16.089,1.448,26.945,26.945,0,0,1-11.828-2.627,14.636,14.636,0,0,1-7.625-8.43q-2.137-5.814.969-15.424a82.588,82.588,0,0,0-3.374,13.649,59.479,59.479,0,0,0-.549,16.09,25.527,25.527,0,0,0,5.325,13.719q4.518,5.658,14.2,6.621,3.415.07,6.655.07,12.872-1.033,19.977-8.243a39.5,39.5,0,0,0,9.878-16.428,53.425,53.425,0,0,0,2.627-16.159A26.352,26.352,0,0,0,536.383,264.863Z" transform="translate(-309.711 -213.636)" fill="#3f4595"/>
    <rect id="Rectangle_5" data-name="Rectangle 5" width="20.515" height="20.515" transform="translate(186.384 11.466) rotate(-33.98)" fill="#5090c7"/>
  </g>
  <g id="Group_14" data-name="Group 14" transform="translate(0 125.186)">
    <path id="Path_43" data-name="Path 43" d="M307.418,372.978c-7.02-.079-7.658-3.35-7.658-7.218,0-2.154,1.4-5.026,3.191-5.863v-.12l-1.437-.16c-3.47,0-4.906,2.712-4.906,6.462,0,5.863,2.831,10.13,10.569,10.13,14.519,0,1.077-19.145,16.274-19.145v13.442h1.675a1.8,1.8,0,0,0,1.754-1.8v-15.2h-3.43C304.786,353.514,316.752,372.978,307.418,372.978Z" transform="translate(-296.609 -346.414)" fill="#3f4595"/>
    <path id="Path_44" data-name="Path 44" d="M335.182,357.078H334.1v10.13c0,5.225.678,7.819-3.829,7.819a7.929,7.929,0,0,1-.957-.08v.917c0,1.156,1.117,1.834,2.752,1.834a5.3,5.3,0,0,0,5.464-5.065V359.751C337.535,357.835,336.976,357.078,335.182,357.078Z" transform="translate(-298.923 -346.667)" fill="#3f4595"/>
    <path id="Path_45" data-name="Path 45" d="M386.788,345.918h-1.076v17.669c-.12,2.154-1.157,2.991-3.032,2.991h-4.748v-5.464c0-4.866-2.991-8.138-7.339-8.138-4.627,0-7.578,3.312-7.578,8.735a7.2,7.2,0,0,0,1.6,4.866h-8.059c-.04-.079-.04-.119-.04-5.464,0-4.866-2.991-8.138-7.339-8.138-4.627,0-7.579,3.312-7.579,8.735,0,6.9,6.542,8.058,11.408,8.217-.519,2.474-4.068,3.709-7.5,3.709a10.9,10.9,0,0,1-1.994-.159v1.6c0,1.4,1.476,1.834,3.31,1.834,5.105,0,8.815-3.15,9.533-6.98h27.2c4.387-.28,5.584-3.909,5.584-7.7V348.59C389.141,346.675,388.583,345.918,386.788,345.918ZM353.4,366.578c-4.866,0-8.614-.479-8.614-5.425,0-3.111,1.595-5.105,4.028-5.105C353.72,356.048,353.4,360.755,353.4,366.578Zm21.421,0c-4.867,0-8.616-.479-8.616-5.425,0-3.111,1.6-5.105,4.029-5.105C375.14,356.048,374.822,360.755,374.822,366.578Z" transform="translate(-299.791 -345.877)" fill="#3f4595"/>
    <path id="Path_46" data-name="Path 46" d="M398.651,345.874h-1.6v21.659c0,1.675.877,2.393,2.154,2.393h1.2V347.509A1.747,1.747,0,0,0,398.651,345.874Z" transform="translate(-303.715 -345.874)" fill="#3f4595"/>
    <path id="Path_47" data-name="Path 47" d="M475.349,352.974c-4.068,0-7.1,3.551-8.615,7.219V348.547c0-1.915-.559-2.673-2.353-2.673H463.3v20.7h-4.229c-1.835,0-2.951-.8-3.031-2.792V359c0-1.913-.559-2.672-2.353-2.672h-1.077v7.259c-.12,2.154-1.158,2.991-3.032,2.991h-.72a4.509,4.509,0,0,1-2.074-.358v-5.106c0-4.866-2.992-8.138-7.338-8.138-4.628,0-7.579,3.312-7.579,8.735a7.2,7.2,0,0,0,1.595,4.867h-9.173c-3.59,0-4.507-3.987-4.507-6.141a7.12,7.12,0,0,1,2.832-5.865h-1.357c-2.273,0-4.548,1.716-4.548,6.581,0,3.711,2.354,8.776,6.981,8.776h18.587c2.553,0,3.231-1.117,3.231-1.117a4.976,4.976,0,0,0,3.153,1.094v.023h1.8a5.773,5.773,0,0,0,3.869-1.517,5.694,5.694,0,0,0,3.869,1.517H484.6c1.356,0,1.6-2.594,1.6-4.507C486.2,359.2,483.208,352.974,475.349,352.974Zm-31.673,13.6c-4.866,0-8.616-.479-8.616-5.425,0-3.111,1.6-5.105,4.028-5.105C444,356.045,443.676,360.751,443.676,366.575Zm23.3,0c1.117-4.945,4.308-9.891,8.455-9.891,6.143,0,7.021,6.341,7.22,9.891Z" transform="translate(-305.105 -345.874)" fill="#3f4595"/>
    <g id="Group_13" data-name="Group 13" transform="translate(6.142 0.519)">
      <path id="Path_48" data-name="Path 48" d="M305.173,380a1.915,1.915,0,1,0,0,3.829,1.914,1.914,0,1,0,0-3.829Z" transform="translate(-303.219 -348.807)" fill="#5090c7"/>
      <path id="Path_49" data-name="Path 49" d="M310.107,380a1.914,1.914,0,1,0,1.913,1.915A1.934,1.934,0,0,0,310.107,380Z" transform="translate(-303.565 -348.807)" fill="#5090c7"/>
      <path id="Path_50" data-name="Path 50" d="M372.7,350.3a1.934,1.934,0,1,0-1.915-1.913A1.908,1.908,0,0,0,372.7,350.3Z" transform="translate(-307.999 -346.432)" fill="#5090c7"/>
      <path id="Path_51" data-name="Path 51" d="M443.029,348.351a1.936,1.936,0,1,1-1.956-1.915A1.909,1.909,0,0,1,443.029,348.351Z" transform="translate(-312.836 -346.432)" fill="#5090c7"/>
      <path id="Path_52" data-name="Path 52" d="M460.891,376.3a1.956,1.956,0,1,1-1.915-1.916A1.941,1.941,0,0,1,460.891,376.3Z" transform="translate(-314.097 -348.409)" fill="#5090c7"/>
      <path id="Path_53" data-name="Path 53" d="M455.955,376.3a1.891,1.891,0,0,1-1.915,1.915,1.916,1.916,0,1,1,0-3.831A1.891,1.891,0,0,1,455.955,376.3Z" transform="translate(-313.75 -348.409)" fill="#5090c7"/>
      <path id="Path_54" data-name="Path 54" d="M481.448,348.437a1.956,1.956,0,1,1-1.915-1.915A1.941,1.941,0,0,1,481.448,348.437Z" transform="translate(-315.551 -346.438)" fill="#5090c7"/>
      <path id="Path_55" data-name="Path 55" d="M524.238,352.56a1.949,1.949,0,1,1-1.9-1.916A1.919,1.919,0,0,1,524.238,352.56Z" transform="translate(-318.579 -346.73)" fill="#5090c7"/>
      <path id="Path_56" data-name="Path 56" d="M519.316,352.56a1.88,1.88,0,0,1-1.916,1.9,1.91,1.91,0,1,1,0-3.818A1.891,1.891,0,0,1,519.316,352.56Z" transform="translate(-318.232 -346.73)" fill="#5090c7"/>
    </g>
    <path id="Path_57" data-name="Path 57" d="M539.361,345.915h-1.077v17.669c-.121,2.154-1.158,2.991-3.032,2.991h-1.437c-1.834,0-2.952-.8-3.031-2.792V348.547c0-1.915-.558-2.673-2.353-2.673h-1.077v17.71c-.121,2.154-1.157,2.991-3.032,2.991h-1.039c-1.834,0-2.951-.8-3.03-2.792V359c0-1.913-.559-2.672-2.353-2.672h-1.077v7.259c-.121,2.154-1.158,2.991-3.032,2.991h-3.909c-.04-.079-.04-.119-.04-5.464,0-4.866-2.992-8.138-7.338-8.138-4.628,0-7.579,3.312-7.579,8.735,0,6.9,6.541,8.058,11.408,8.217-.518,2.474-4.069,3.709-7.5,3.709a10.887,10.887,0,0,1-1.993-.159v1.6c0,1.4,1.476,1.834,3.31,1.834,5.105,0,8.815-3.15,9.532-6.98h4.987a5.775,5.775,0,0,0,3.869-1.517,5.693,5.693,0,0,0,3.868,1.517H525.2a5.78,5.78,0,0,0,3.869-1.517,5.694,5.694,0,0,0,3.868,1.517h3.192c4.387-.28,5.583-3.909,5.583-7.7V348.587C541.713,346.672,541.155,345.915,539.361,345.915Zm-32.631,20.66c-4.867,0-8.616-.479-8.616-5.425,0-3.111,1.6-5.105,4.029-5.105C507.05,356.045,506.73,360.751,506.73,366.575Z" transform="translate(-310.638 -345.874)" fill="#3f4595"/>
  </g>
</svg>
